<?xml version="1.0" standalone="no"?>
<!DOCTYPE svg PUBLIC "-//W3C//DTD SVG 20010904//EN"
 "http://www.w3.org/TR/2001/REC-SVG-20010904/DTD/svg10.dtd">
<svg version="1.0" xmlns="http://www.w3.org/2000/svg"
 width="1280.000000pt" height="1280.000000pt" viewBox="0 0 1280.000000 1280.000000"
 preserveAspectRatio="xMidYMid meet">
<metadata>
Created by potrace 1.14, written by Peter Selinger 2001-2017
</metadata>
<g transform="translate(0.000000,1280.000000) scale(0.100000,-0.100000)"
fill="#000000" stroke="none">
<path d="M6175 11555 c-5 -3 -77 -9 -160 -14 -207 -14 -416 -45 -571 -86 -139
-37 -270 -78 -319 -100 -16 -7 -59 -23 -95 -35 -36 -12 -67 -25 -70 -29 -5 -9
-151 -75 -188 -86 -12 -3 -34 -17 -50 -29 -15 -12 -64 -45 -110 -72 -96 -57
-121 -72 -153 -97 -13 -9 -48 -33 -77 -53 -29 -19 -61 -42 -70 -50 -9 -7 -53
-44 -97 -80 -85 -70 -165 -146 -218 -204 -18 -19 -54 -58 -82 -86 -65 -66
-134 -145 -163 -186 -148 -213 -193 -279 -199 -296 -3 -9 -17 -31 -30 -49 -33
-45 -180 -339 -197 -393 -13 -42 -47 -127 -65 -160 -4 -8 -20 -60 -35 -115
-15 -55 -33 -122 -41 -150 -43 -151 -82 -418 -90 -615 -9 -221 11 -515 50
-725 8 -44 19 -107 24 -140 15 -93 36 -181 71 -290 17 -55 43 -137 56 -183 23
-79 89 -249 138 -357 13 -27 27 -61 31 -75 8 -28 203 -422 252 -511 17 -30 57
-100 88 -155 32 -54 72 -124 88 -154 28 -50 117 -192 167 -265 11 -16 40 -61
65 -100 24 -38 57 -88 74 -110 16 -22 39 -58 52 -80 13 -22 35 -55 51 -73 15
-18 28 -38 28 -45 0 -7 8 -20 18 -28 19 -16 54 -66 177 -249 35 -52 72 -106
83 -120 11 -14 54 -77 98 -140 43 -63 96 -141 118 -173 23 -32 55 -80 71 -106
17 -26 45 -68 63 -92 18 -24 56 -80 85 -124 29 -44 62 -93 73 -110 11 -16 38
-57 59 -90 22 -33 51 -76 66 -95 14 -19 37 -55 50 -80 13 -25 43 -72 65 -105
22 -33 60 -94 84 -135 23 -41 50 -84 59 -95 9 -11 27 -40 40 -65 14 -25 34
-58 45 -75 12 -16 26 -39 32 -50 6 -11 44 -79 86 -151 42 -72 79 -140 83 -153
3 -12 35 -81 70 -154 133 -276 230 -562 311 -917 14 -63 27 -121 30 -128 9
-32 24 -4 44 85 12 54 26 107 31 118 4 11 18 54 29 95 68 240 184 529 327 814
57 114 161 303 183 331 4 6 19 30 33 55 64 114 133 231 176 300 27 41 67 104
89 140 23 36 59 92 82 125 22 33 90 137 151 230 61 94 126 193 145 220 91 134
152 222 244 355 55 80 134 195 175 255 42 61 114 164 160 230 131 188 261 383
401 600 42 65 164 276 164 284 0 2 10 18 23 35 13 17 36 53 51 79 39 67 238
469 269 542 122 287 149 353 177 445 17 58 47 152 65 210 104 327 167 924 135
1280 -11 122 -35 278 -57 370 -8 36 -25 110 -38 165 -20 88 -33 130 -65 210
-4 11 -20 56 -35 100 -31 89 -179 400 -204 428 -16 19 -52 77 -92 152 -12 22
-32 54 -46 70 -13 17 -27 35 -31 40 -5 6 -35 48 -67 95 -67 95 -282 328 -401
436 -89 80 -223 184 -323 250 -36 24 -75 50 -86 58 -112 76 -440 244 -545 280
-25 8 -85 29 -134 46 -266 93 -556 145 -861 154 -99 3 -184 4 -190 1z m165
-1010 c350 -27 524 -72 810 -209 202 -96 325 -179 486 -324 153 -139 252 -251
357 -409 209 -311 318 -604 356 -958 48 -447 -28 -847 -233 -1241 -95 -181
-194 -320 -331 -464 -296 -311 -639 -515 -1036 -616 -156 -40 -228 -50 -454
-65 -266 -17 -493 11 -746 91 -132 42 -350 142 -421 191 -14 11 -29 19 -33 19
-8 0 -125 79 -143 97 -7 7 -18 13 -23 13 -21 0 -242 207 -349 326 -46 52 -140
171 -140 178 0 2 -25 44 -56 92 -210 332 -324 732 -324 1139 0 150 21 342 51
465 11 47 24 101 28 120 28 123 161 432 216 500 6 8 25 37 41 64 94 158 272
366 407 477 34 28 67 57 73 65 10 12 262 184 271 184 2 0 21 11 43 25 22 14
62 34 88 44 26 10 76 32 112 49 36 16 77 34 91 40 62 25 242 72 349 91 191 34
252 36 510 16z"/>
<path d="M6215 10263 c-146 -18 -283 -107 -361 -235 -166 -271 -22 -622 290
-708 206 -57 404 18 528 201 62 92 73 131 73 269 l0 115 -44 88 c-52 104 -118
170 -226 222 -62 30 -171 58 -215 53 -8 0 -28 -3 -45 -5z"/>
<path d="M4880 9120 c0 -62 45 -230 84 -315 68 -146 176 -299 263 -371 166
-136 336 -206 538 -219 11 -1 26 -2 33 -3 9 -2 12 -112 12 -515 l0 -512 25
-100 c40 -158 107 -276 213 -379 118 -114 247 -187 377 -213 94 -18 286 -18
300 0 6 9 7 60 3 143 -10 168 -8 844 4 1294 11 398 4 474 -55 615 -16 39 -31
79 -34 90 -3 11 -23 46 -44 79 -22 32 -39 62 -39 67 0 5 -44 54 -97 108 -113
113 -197 166 -323 204 -200 61 -203 61 -752 65 l-508 3 0 -41z"/>
</g>
</svg>
